<svg width="1200" height="360" viewBox="0 0 1200 360" fill="none" xmlns="http://www.w3.org/2000/svg">
  <defs>
    <linearGradient id="bg" x1="0" y1="0" x2="1200" y2="360" gradientUnits="userSpaceOnUse">
      <stop stop-color="#071827"/>
      <stop offset="1" stop-color="#0D1F33"/>
    </linearGradient>
    <linearGradient id="accent" x1="250" y1="40" x2="990" y2="300" gradientUnits="userSpaceOnUse">
      <stop stop-color="#7DD3FC"/>
      <stop offset="0.5" stop-color="#60A5FA"/>
      <stop offset="1" stop-color="#A78BFA"/>
    </linearGradient>
  </defs>
  <rect width="1200" height="360" rx="26" fill="url(#bg)"/>
  <circle cx="150" cy="120" r="90" fill="#0F172A" stroke="#7DD3FC" stroke-width="2"/>
  <circle cx="150" cy="120" r="42" fill="url(#accent)"/>
  <path d="M126 120C126 112.268 132.268 106 140 106H174C181.732 106 188 112.268 188 120C188 127.732 181.732 134 174 134H140C132.268 134 126 127.732 126 120Z" fill="#071827" opacity="0.8"/>
  <text x="250" y="154" fill="#E2E8F0" font-family="Arial, Helvetica, sans-serif" font-size="58" font-weight="700" letter-spacing="3">CASEZERO</text>
  <text x="250" y="215" fill="#9AC7FF" font-family="Arial, Helvetica, sans-serif" font-size="30" font-weight="500" letter-spacing="4">MVP</text>
  <rect x="250" y="245" width="360" height="8" rx="4" fill="url(#accent)"/>
  <text x="250" y="296" fill="#C7D2FE" font-family="Arial, Helvetica, sans-serif" font-size="22" font-weight="500">Incident Resolution • Approval Gates • Automated Verification</text>
  <g opacity="0.9">
    <rect x="850" y="78" width="190" height="160" rx="18" fill="#0F172A" stroke="#334155"/>
    <circle cx="905" cy="118" r="18" fill="#34D399"/>
    <path d="M893 118L902 127L922 104" stroke="#0F172A" stroke-width="5" stroke-linecap="round" stroke-linejoin="round"/>
    <rect x="930" y="100" width="76" height="10" rx="5" fill="#475569"/>
    <rect x="930" y="126" width="94" height="10" rx="5" fill="#475569"/>
    <rect x="930" y="152" width="80" height="10" rx="5" fill="#475569"/>
    <rect x="880" y="183" width="120" height="12" rx="6" fill="#60A5FA"/>
  </g>
</svg>
